# xmcd
#
# Track frame offsets:
# 225
# 19467
# 36385
# 49240
# 65647
# 80865
# 97082
# 108935
# 123855
# 135097
# 148972
# 166087
# 180915
# 194632
#
# Disc length: 2807 seconds
#
#
# Revision: 2
# Processed by: cddbd v1.4PL0 Copyright (c) Steve Scherf et al.
# Submitted via: FreeRIP 2.52 
#
DISCID=cb0af40e
DTITLE=Various Artist - Rock It Country Style Vol. 2
DYEAR=1989
DGENRE=Country
TTITLE0=Tear-Staind Letter
TTITLE1=(Do You Love Me) Just Say Yes
TTITLE2=Streets of Bakersfield
TTITLE3=She's To Good To Be True
TTITLE4=I've Been Lookin'
TTITLE5=Change of Heart
TTITLE6=I Wanna Know Her Again
TTITLE7=What Do You Want From Me This Time
TTITLE8=Early In The Morning and Late At Night
TTITLE9=Untold Stories
TTITLE10=New Shade Of Blue
TTITLE11=Rebels Without A Clue
TTITLE12=Let's Get Started If We're Gonna Break My Heart
TTITLE13=Button Off My Shirt
EXTD=
EXTT0=Jo-El Sonnier
EXTT1=Highway 101
EXTT2=Dwight Yoakam and Buck Owens
EXTT3=Exile
EXTT4=Nitty Gritty Dirt Band
EXTT5=The Judds
EXTT6=Wagoneers
EXTT7=Foster and Lloyd
EXTT8=Hank Williams Jr.
EXTT9=Kathy Mattea
EXTT10=Southern Pacific
EXTT11=Bellamy Brothers
EXTT12=The Statler Brothers
EXTT13=Ronnie Milsap
PLAYORDER=
